<svg width="896" height="745" viewBox="0 0 896 745" fill="none" xmlns="http://www.w3.org/2000/svg">
<g clip-path="url(#clip0_5824_9426)">
<mask id="mask0_5824_9426" style="mask-type:luminance" maskUnits="userSpaceOnUse" x="0" y="0" width="897" height="745">
<path d="M896.477 0H0V745H896.477V0Z" fill="white"/>
</mask>
<g mask="url(#mask0_5824_9426)">
<mask id="mask1_5824_9426" style="mask-type:luminance" maskUnits="userSpaceOnUse" x="0" y="0" width="897" height="745">
<path d="M896.477 0H0V745H896.477V0Z" fill="white"/>
</mask>
<g mask="url(#mask1_5824_9426)">
<g filter="url(#filter0_d_5824_9426)">
<path d="M896.477 0H0V745H896.477V0Z" fill="#2E2D35"/>
<g filter="url(#filter1_f_5824_9426)">
<path d="M634.965 491.587C760.979 491.587 863.133 418.224 863.133 327.725C863.133 237.227 760.979 163.863 634.965 163.863C508.951 163.863 406.797 237.227 406.797 327.725C406.797 418.224 508.951 491.587 634.965 491.587Z" fill="#BD79E6"/>
</g>
<g filter="url(#filter2_f_5824_9426)">
<path d="M412.035 859.709C468.597 859.709 514.449 826.779 514.449 786.159C514.449 745.539 468.597 712.609 412.035 712.609C355.473 712.609 309.621 745.539 309.621 786.159C309.621 826.779 355.473 859.709 412.035 859.709Z" fill="#BD79E6"/>
</g>
<g filter="url(#filter3_f_5824_9426)">
<path d="M754.526 46.6802C770.311 46.6802 783.107 31.7516 783.107 13.3362C783.107 -5.0792 770.311 -20.0078 754.526 -20.0078C738.741 -20.0078 725.945 -5.0792 725.945 13.3362C725.945 31.7516 738.741 46.6802 754.526 46.6802Z" fill="#05000C"/>
</g>
<g filter="url(#filter4_f_5824_9426)">
<path d="M358.684 46.681C395.252 46.681 424.896 17.0371 424.896 -19.5306C424.896 -56.0982 395.252 -85.7422 358.684 -85.7422C322.117 -85.7422 292.473 -56.0982 292.473 -19.5306C292.473 17.0371 322.117 46.681 358.684 46.681Z" fill="#E7B813"/>
<path d="M358.684 46.681C395.252 46.681 424.896 17.0371 424.896 -19.5306C424.896 -56.0982 395.252 -85.7422 358.684 -85.7422C322.117 -85.7422 292.473 -56.0982 292.473 -19.5306C292.473 17.0371 322.117 46.681 358.684 46.681Z" fill="#FF002E"/>
</g>
<g filter="url(#filter5_f_5824_9426)">
<path d="M481.582 212.45C537.091 212.45 582.09 182.593 582.09 145.762C582.09 108.931 537.091 79.0742 481.582 79.0742C426.073 79.0742 381.074 108.931 381.074 145.762C381.074 182.593 426.073 212.45 481.582 212.45Z" fill="#F4B000"/>
</g>
<g filter="url(#filter6_f_5824_9426)">
<path d="M344.872 855.513C381.702 855.513 411.56 825.655 411.56 788.825C411.56 751.994 381.702 722.137 344.872 722.137C308.041 722.137 278.184 751.994 278.184 788.825C278.184 825.655 308.041 855.513 344.872 855.513Z" fill="#F4B000"/>
</g>
<g filter="url(#filter7_f_5824_9426)">
<path d="M840.601 427.326C920.024 391.624 972.167 335.45 957.067 301.857C941.966 268.264 865.34 269.974 785.917 305.676C706.494 341.378 654.351 397.553 669.451 431.146C684.552 464.738 761.178 463.028 840.601 427.326Z" fill="#16052B"/>
</g>
<g filter="url(#filter8_f_5824_9426)">
<path d="M82.2652 265.369C161.688 229.667 213.831 173.493 198.731 139.9C183.63 106.307 107.004 108.017 27.5811 143.719C-51.8417 179.421 -103.985 235.596 -88.8845 269.188C-73.7839 302.781 2.8424 301.071 82.2652 265.369Z" fill="#605F7C"/>
</g>
<g filter="url(#filter9_f_5824_9426)">
<path d="M669.813 229.747C749.303 229.747 813.743 165.307 813.743 85.8167C813.743 6.32639 749.303 -58.1133 669.813 -58.1133C590.322 -58.1133 525.883 6.32639 525.883 85.8167C525.883 165.307 590.322 229.747 669.813 229.747Z" fill="#230449" fill-opacity="0.35"/>
</g>
<path d="M896.477 0H0V745H896.477V0Z" fill="#393939" fill-opacity="0.1"/>
<mask id="mask2_5824_9426" style="mask-type:luminance" maskUnits="userSpaceOnUse" x="0" y="0" width="896" height="745">
<path d="M896 0H0V745H896V0Z" fill="white"/>
</mask>
<g mask="url(#mask2_5824_9426)">
<path d="M896 0H0V745H896V0Z" fill="black" fill-opacity="0.55"/>
<g filter="url(#filter10_f_5824_9426)">
<path d="M761.918 305.993C857.13 305.993 934.313 228.809 934.313 133.598C934.313 38.387 857.13 -38.7969 761.918 -38.7969C666.707 -38.7969 589.523 38.387 589.523 133.598C589.523 228.809 666.707 305.993 761.918 305.993Z" fill="#AE3EF3" fill-opacity="0.59"/>
</g>
</g>
</g>
</g>
</g>
</g>
<defs>
<filter id="filter0_d_5824_9426" x="-102.635" y="-93.0779" width="1073.45" height="967.744" filterUnits="userSpaceOnUse" color-interpolation-filters="sRGB">
<feFlood flood-opacity="0" result="BackgroundImageFix"/>
<feColorMatrix in="SourceAlpha" type="matrix" values="0 0 0 0 0 0 0 0 0 0 0 0 0 0 0 0 0 0 127 0" result="hardAlpha"/>
<feOffset dy="3.81074"/>
<feGaussianBlur stdDeviation="5.57321"/>
<feComposite in2="hardAlpha" operator="out"/>
<feColorMatrix type="matrix" values="0 0 0 0 0 0 0 0 0 0 0 0 0 0 0 0 0 0 0.25 0"/>
<feBlend mode="normal" in2="BackgroundImageFix" result="effect1_dropShadow_5824_9426"/>
<feBlend mode="normal" in="SourceGraphic" in2="effect1_dropShadow_5824_9426" result="shape"/>
</filter>
<filter id="filter1_f_5824_9426" x="-28.9191" y="-271.853" width="1327.77" height="1199.16" filterUnits="userSpaceOnUse" color-interpolation-filters="sRGB">
<feFlood flood-opacity="0" result="BackgroundImageFix"/>
<feBlend mode="normal" in="SourceGraphic" in2="BackgroundImageFix" result="shape"/>
<feGaussianBlur stdDeviation="217.858" result="effect1_foregroundBlur_5824_9426"/>
</filter>
<filter id="filter2_f_5824_9426" x="114.049" y="517.038" width="595.971" height="538.243" filterUnits="userSpaceOnUse" color-interpolation-filters="sRGB">
<feFlood flood-opacity="0" result="BackgroundImageFix"/>
<feBlend mode="normal" in="SourceGraphic" in2="BackgroundImageFix" result="shape"/>
<feGaussianBlur stdDeviation="97.7858" result="effect1_foregroundBlur_5824_9426"/>
</filter>
<filter id="filter3_f_5824_9426" x="474.809" y="-271.144" width="559.432" height="568.96" filterUnits="userSpaceOnUse" color-interpolation-filters="sRGB">
<feFlood flood-opacity="0" result="BackgroundImageFix"/>
<feBlend mode="normal" in="SourceGraphic" in2="BackgroundImageFix" result="shape"/>
<feGaussianBlur stdDeviation="125.568" result="effect1_foregroundBlur_5824_9426"/>
</filter>
<filter id="filter4_f_5824_9426" x="101.936" y="-276.279" width="513.496" height="513.498" filterUnits="userSpaceOnUse" color-interpolation-filters="sRGB">
<feFlood flood-opacity="0" result="BackgroundImageFix"/>
<feBlend mode="normal" in="SourceGraphic" in2="BackgroundImageFix" result="shape"/>
<feGaussianBlur stdDeviation="95.2685" result="effect1_foregroundBlur_5824_9426"/>
</filter>
<filter id="filter5_f_5824_9426" x="238.171" y="-63.8286" width="486.821" height="419.183" filterUnits="userSpaceOnUse" color-interpolation-filters="sRGB">
<feFlood flood-opacity="0" result="BackgroundImageFix"/>
<feBlend mode="normal" in="SourceGraphic" in2="BackgroundImageFix" result="shape"/>
<feGaussianBlur stdDeviation="71.4514" result="effect1_foregroundBlur_5824_9426"/>
</filter>
<filter id="filter6_f_5824_9426" x="76.3016" y="520.255" width="537.139" height="537.139" filterUnits="userSpaceOnUse" color-interpolation-filters="sRGB">
<feFlood flood-opacity="0" result="BackgroundImageFix"/>
<feBlend mode="normal" in="SourceGraphic" in2="BackgroundImageFix" result="shape"/>
<feGaussianBlur stdDeviation="100.941" result="effect1_foregroundBlur_5824_9426"/>
</filter>
<filter id="filter7_f_5824_9426" x="523.945" y="134.837" width="578.626" height="463.329" filterUnits="userSpaceOnUse" color-interpolation-filters="sRGB">
<feFlood flood-opacity="0" result="BackgroundImageFix"/>
<feBlend mode="normal" in="SourceGraphic" in2="BackgroundImageFix" result="shape"/>
<feGaussianBlur stdDeviation="71.4514" result="effect1_foregroundBlur_5824_9426"/>
</filter>
<filter id="filter8_f_5824_9426" x="-293.37" y="-86.0988" width="696.584" height="581.287" filterUnits="userSpaceOnUse" color-interpolation-filters="sRGB">
<feFlood flood-opacity="0" result="BackgroundImageFix"/>
<feBlend mode="normal" in="SourceGraphic" in2="BackgroundImageFix" result="shape"/>
<feGaussianBlur stdDeviation="100.941" result="effect1_foregroundBlur_5824_9426"/>
</filter>
<filter id="filter9_f_5824_9426" x="430.614" y="-153.382" width="478.397" height="478.397" filterUnits="userSpaceOnUse" color-interpolation-filters="sRGB">
<feFlood flood-opacity="0" result="BackgroundImageFix"/>
<feBlend mode="normal" in="SourceGraphic" in2="BackgroundImageFix" result="shape"/>
<feGaussianBlur stdDeviation="47.6343" result="effect1_foregroundBlur_5824_9426"/>
</filter>
<filter id="filter10_f_5824_9426" x="67.6375" y="-560.683" width="1388.56" height="1388.56" filterUnits="userSpaceOnUse" color-interpolation-filters="sRGB">
<feFlood flood-opacity="0" result="BackgroundImageFix"/>
<feBlend mode="normal" in="SourceGraphic" in2="BackgroundImageFix" result="shape"/>
<feGaussianBlur stdDeviation="260.943" result="effect1_foregroundBlur_5824_9426"/>
</filter>
<clipPath id="clip0_5824_9426">
<rect width="896" height="745" fill="white"/>
</clipPath>
</defs>
</svg>
